<?xml version="1.0" standalone="no"?>
<!DOCTYPE svg PUBLIC "-//W3C//DTD SVG 20010904//EN"
 "http://www.w3.org/TR/2001/REC-SVG-20010904/DTD/svg10.dtd">
<svg version="1.0" xmlns="http://www.w3.org/2000/svg"
 width="560.000000pt" height="560.000000pt" viewBox="0 0 560.000000 560.000000"
 preserveAspectRatio="xMidYMid meet">
<metadata>
Created by potrace 1.14, written by Peter Selinger 2001-2017
</metadata>
<g transform="translate(0.000000,560.000000) scale(0.100000,-0.100000)"
fill="#000000" stroke="none">
<path d="M1486 5506 c-64 -129 -87 -234 -91 -416 -3 -117 0 -162 16 -235 32
-150 74 -269 128 -360 39 -69 148 -216 168 -228 22 -14 15 -36 -9 -31 -13 2
-39 7 -58 10 -19 2 -57 10 -85 16 -27 7 -52 13 -55 13 -41 10 -103 31 -135 48
-22 11 -40 18 -40 16 0 -1 -21 6 -47 16 -27 11 -48 23 -48 28 0 4 -6 7 -13 7
-41 0 -225 156 -309 260 -71 89 -154 266 -161 343 -2 21 -9 43 -15 49 -13 13
-25 -14 -43 -91 -21 -92 -23 -108 -22 -246 0 -113 5 -156 23 -220 12 -44 23
-84 25 -90 13 -49 126 -277 145 -295 3 -3 17 -21 30 -40 44 -64 157 -181 220
-229 19 -14 41 -32 48 -39 8 -7 33 -21 56 -32 44 -20 73 -46 63 -56 -25 -26
-287 -45 -372 -28 -48 10 -60 12 -60 14 0 1 -8 3 -19 5 -37 7 -192 87 -236
122 -25 20 -71 63 -103 95 -33 33 -61 58 -63 56 -9 -9 17 -121 42 -185 51
-126 167 -297 261 -383 164 -150 324 -232 546 -281 97 -21 161 -24 712 -33
149 -3 284 -7 300 -10 17 -3 57 -7 90 -10 73 -7 102 -11 225 -36 52 -11 106
-22 120 -24 14 -3 41 -10 60 -15 19 -6 65 -18 102 -28 37 -11 71 -22 74 -26 4
-4 15 -7 24 -7 16 0 72 -20 155 -55 17 -7 40 -16 53 -20 12 -3 22 -10 22 -14
0 -4 10 -7 22 -8 11 -1 24 -6 27 -11 3 -5 35 -24 71 -43 36 -18 102 -57 147
-86 45 -29 85 -49 87 -44 3 5 2 22 -4 37 -5 16 -11 43 -14 59 -16 103 -111
399 -178 555 -54 127 -154 320 -201 390 -97 143 -216 290 -322 395 -157 158
-182 179 -332 286 -71 49 -136 97 -146 104 -9 8 -20 15 -22 15 -10 0 -180 120
-264 187 -303 240 -484 541 -508 846 -8 109 -26 105 -87 -17z"/>
<path d="M3256 5023 c-44 -140 -6 -322 89 -439 46 -56 139 -117 222 -145 55
-19 90 -23 185 -24 98 0 118 -3 118 -15 -1 -8 -11 -23 -24 -32 -162 -118 -403
-124 -589 -15 -47 28 -119 95 -162 151 -15 20 -31 36 -36 36 -13 0 -10 -97 5
-162 40 -167 189 -307 363 -339 149 -28 308 3 508 101 106 51 190 86 227 95
13 2 46 11 73 19 174 48 395 39 569 -25 44 -16 83 -29 88 -29 15 0 8 26 -28
95 -86 165 -226 290 -399 353 -59 22 -74 26 -145 39 -57 10 -229 6 -314 -7
-87 -13 -238 -16 -306 -5 -168 26 -307 131 -387 293 -37 74 -48 85 -57 55z"/>
<path d="M4417 4124 c-1 -2 -22 -5 -46 -8 -64 -8 -148 -34 -221 -70 -67 -33
-111 -57 -120 -66 -3 -3 -22 -17 -42 -33 -60 -44 -146 -139 -184 -201 -124
-207 -157 -436 -99 -701 15 -66 28 -129 29 -140 2 -11 5 -27 9 -35 3 -8 10
-37 17 -65 6 -27 15 -66 20 -85 6 -19 12 -53 15 -74 3 -21 7 -48 10 -60 19
-91 26 -293 13 -401 -3 -33 -9 -84 -12 -113 -3 -30 -8 -57 -10 -61 -5 -7 -7
-17 -21 -85 -3 -16 -9 -34 -12 -39 -3 -6 -7 -20 -9 -31 -9 -64 -111 -287 -181
-394 -47 -72 -125 -176 -135 -180 -4 -2 -8 -7 -8 -12 0 -4 -21 -30 -47 -58
-27 -28 -60 -64 -74 -79 -23 -26 -85 -80 -149 -132 -14 -11 -32 -26 -40 -34
-25 -23 -142 -93 -218 -131 -40 -20 -72 -41 -72 -46 0 -14 199 -4 280 14 57
12 135 35 180 53 8 3 20 7 25 8 6 2 49 20 95 41 175 80 319 180 450 314 93 95
155 167 174 199 5 9 16 22 23 29 7 7 13 17 13 21 0 4 8 16 18 27 72 78 202
379 231 534 42 225 44 443 7 715 -12 87 -15 230 -5 246 15 22 32 -8 74 -129
20 -59 41 -116 46 -127 8 -20 56 -182 65 -220 32 -146 19 -508 -24 -625 -3 -8
-7 -24 -9 -35 -2 -11 -13 -49 -24 -85 -12 -36 -22 -69 -24 -75 -19 -80 -162
-338 -232 -419 -13 -15 -23 -31 -23 -36 0 -6 -4 -10 -10 -10 -5 0 -10 -4 -10
-10 0 -5 -10 -20 -22 -33 -108 -114 -159 -165 -184 -186 -79 -64 -213 -160
-249 -179 -33 -17 -37 -22 -22 -27 16 -7 35 -5 112 10 35 7 60 13 60 15 0 1 7
3 15 5 70 15 257 103 351 165 33 22 65 40 70 40 5 0 9 4 9 8 0 4 14 16 32 26
50 30 260 245 310 317 94 137 164 277 193 384 49 181 59 257 60 440 0 157 -7
228 -30 329 -39 163 -56 208 -189 478 -42 85 -76 161 -76 169 0 8 -4 19 -8 24
-11 14 -29 72 -38 120 -45 258 109 453 371 472 72 5 221 -8 261 -24 32 -12 11
30 -45 89 -106 114 -332 225 -516 254 -41 6 -193 13 -198 8z"/>
<path d="M552 3197 c7 -56 89 -227 149 -311 40 -54 233 -242 279 -271 102 -65
272 -146 348 -166 17 -5 49 -14 70 -19 20 -6 53 -13 72 -16 19 -3 49 -9 67
-14 41 -11 351 -11 400 0 21 5 54 11 73 14 19 3 42 7 50 9 8 2 42 9 75 16 53
12 215 61 255 78 8 3 20 7 25 9 6 1 37 10 70 19 52 15 117 32 150 39 6 1 28 8
50 14 82 22 169 35 310 47 22 1 45 4 50 4 18 3 -28 31 -105 67 -41 19 -83 39
-92 44 -10 6 -22 10 -28 10 -6 0 -32 9 -58 21 -73 33 -82 36 -157 54 -38 9
-86 20 -105 25 -50 12 -219 47 -266 55 -42 6 -89 12 -174 20 -59 6 -393 6
-450 0 -262 -26 -393 -26 -559 0 -76 11 -281 97 -281 117 0 5 -7 8 -15 8 -8 0
-15 4 -15 9 0 5 -8 12 -17 15 -10 3 -51 37 -92 76 -40 38 -75 70 -78 70 -3 0
-3 -19 -1 -43z"/>
<path d="M3188 2475 c-2 -2 -44 -5 -94 -6 -50 -1 -119 -8 -155 -16 -35 -7 -75
-16 -89 -19 -87 -18 -246 -87 -335 -147 -91 -62 -93 -72 -10 -81 28 -3 59 -7
70 -10 99 -20 581 -30 670 -13 22 4 67 12 100 19 33 6 64 15 70 19 5 5 15 9
23 9 18 0 144 63 182 92 34 25 36 33 15 54 -8 9 -15 13 -15 9 0 -3 -12 1 -27
9 -25 12 -138 44 -214 60 -14 3 -57 8 -95 11 -38 4 -74 8 -81 10 -6 2 -13 2
-15 0z"/>
<path d="M3186 2014 c-150 -21 -219 -24 -596 -29 -339 -4 -499 -10 -560 -20
-22 -3 -103 -14 -165 -20 -11 -1 -27 -5 -35 -8 -8 -3 -55 -15 -105 -27 -252
-64 -500 -172 -653 -287 -76 -56 -209 -184 -252 -241 -14 -19 -30 -39 -35 -45
-6 -7 -17 -27 -24 -44 -7 -18 -17 -33 -20 -33 -4 0 -17 -21 -29 -47 -43 -96
-70 -158 -71 -165 -1 -4 -3 -13 -5 -20 -3 -7 -9 -35 -15 -63 -7 -27 -14 -61
-18 -75 -13 -56 -12 -295 3 -364 16 -75 49 -175 62 -188 5 -5 19 33 31 83 22
91 67 215 87 241 6 7 14 21 17 31 20 54 151 230 236 316 115 115 124 123 238
198 93 61 117 76 198 119 50 26 50 27 30 3 -11 -13 -32 -37 -47 -53 -15 -16
-25 -33 -22 -38 3 -4 1 -8 -4 -8 -5 0 -17 -18 -27 -40 -10 -22 -22 -40 -27
-40 -4 0 -7 -3 -6 -7 0 -5 -2 -17 -7 -28 -4 -11 -14 -36 -22 -55 -40 -99 -54
-244 -39 -384 4 -38 11 -77 16 -85 4 -9 13 -34 20 -56 38 -127 167 -321 190
-286 5 8 8 41 7 73 -1 32 0 58 3 58 3 0 5 15 6 33 2 69 16 147 25 147 6 0 8 4
5 9 -9 14 24 110 67 191 22 41 42 77 46 80 3 3 25 30 47 60 78 104 153 169
289 251 94 57 293 149 320 149 8 0 15 5 15 12 0 6 3 9 6 5 6 -6 46 10 161 64
37 17 88 41 113 52 63 29 260 147 260 156 0 5 9 12 19 17 37 17 233 199 286
264 54 68 64 83 59 91 -3 5 -11 7 -17 3 -7 -3 5 9 27 28 45 40 42 40 -88 22z"/>
</g>
</svg>
